# xmcd
#
# Track frame offsets:
#	150
#	18580
#	34468
#	52043
#	67752
#	87745
#	104208
#	121635
#	137234
#	156069
#	175484
#	194009
#	211407
#	231430
#	245168
#	261241
#	278094
#	299280
#	312220
#	330325
#	345086
#
# Disc length: 4759 seconds
#
# Revision: 25
# Processed by: cddbd v1.5.2PL0 Copyright (c) Steve Scherf et al.
# Submitted via: EZCDAudioConverter 7.0.6.1
#
DISCID=46129515
DTITLE=Various Artist - Greatest Hits
DYEAR=2006
DGENRE=Rock
TTITLE0=Huey Lewis and The News - The Heart Of Rock and Roll
TTITLE1=Huey Lewis and The News - I Want A New Drug
TTITLE2=Huey Lewis and The News - The Power Of Love
TTITLE3=Huey Lewis and The News - Jacob's Ladder [Single Remix]
TTITLE4=Huey Lewis and The News - Stuck With You
TTITLE5=Huey Lewis and The News - Doing It All For My Baby
TTITLE6=Huey Lewis and The News - If This Is It
TTITLE7=Huey Lewis and The News - Do You Believe In Love
TTITLE8=Huey Lewis and The News - Heart And Soul
TTITLE9=Huey Lewis and The News - Back In Time
TTITLE10=Huey Lewis and The News - Perfect World
TTITLE11=Huey Lewis and The News - I Know What I Like
TTITLE12=Huey Lewis and The News - Trouble In Paradise [Live In San Francisco, C
TTITLE12=A, 02/21/85]
TTITLE13=Huey Lewis and The News - It's Alright
TTITLE14=Gwyneth Paltrow and Huey Lewis - Cruisin' [Edit]
TTITLE15=Huey Lewis and The News - Hope You Love Me Like You Say You Do
TTITLE16=Huey Lewis and The News featuring Stan Getz - Small World
TTITLE17=Huey Lewis and The News - But It's Alright
TTITLE18=Huey Lewis and The News - Hip To Be Square
TTITLE19=Huey Lewis and The News - Couple Days Off
TTITLE20=Huey Lewis and The News - Workin' For A Livin'
EXTD=
EXTT0=
EXTT1=
EXTT2=
EXTT3=
EXTT4=
EXTT5=
EXTT6=
EXTT7=
EXTT8=
EXTT9=
EXTT10=
EXTT11=
EXTT12=
EXTT13=
EXTT14=
EXTT15=
EXTT16=
EXTT17=
EXTT18=
EXTT19=
EXTT20=
PLAYORDER=
